<?xml version="1.0" encoding="UTF-8"?>
<svg version="1.1" xmlns="http://www.w3.org/2000/svg" width="840" height="520" viewBox="0 0 840 520">
  <defs>
    <g id="corner">
      <path d="M0 0 C15.18 0 30.36 0 46 0 C46 15.18 46 30.36 46 46 C30.82 46 15.64 46 0 46 C0 30.82 0 15.64 0 0 Z" fill="#585A61"/>
      <path d="M20 20 H46 V46 H20 Z" fill="#FFFFFF"/>
      <path d="M0 0 H45 V2 C31 2.3 17 2.62 3 4 C2.74 17.57 2.4 31.19 2 45 H0 Z" fill="#7B7C83"/>
    </g>
  </defs>

  <rect width="840" height="520" fill="#15161A"/>

  <rect x="46" y="0" width="748" height="46" fill="#585A61"/>
  <rect x="0" y="46" width="46" height="428" fill="#585A61"/>
  <rect x="794" y="46" width="46" height="428" fill="#585A61"/>
  <rect x="46" y="474" width="748" height="46" fill="#585A61"/>

  <rect x="46" y="20" width="748" height="26" fill="#7B7C83"/>
  <rect x="20" y="46" width="26" height="428" fill="#7B7C83"/>
  <rect x="794" y="46" width="26" height="428" fill="#7B7C83"/>
  <rect x="46" y="474" width="748" height="26" fill="#7B7C83"/>

  <rect x="46" y="46" width="748" height="428" fill="#1C1D22"/>

  <use href="#corner" x="0" y="0"/>
  <use href="#corner" transform="translate(840 0) scale(-1 1)"/>
  <use href="#corner" transform="translate(0 520) scale(1 -1)"/>
  <use href="#corner" transform="translate(840 520) scale(-1 -1)"/>
</svg>
